<?xml version="1.0" encoding="UTF-8"?>
<svg width="3662px" height="3973px" viewBox="0 0 3662 3973" version="1.1" xmlns="http://www.w3.org/2000/svg" xmlns:xlink="http://www.w3.org/1999/xlink">
    <!-- Generator: Sketch 45.2 (43514) - http://www.bohemiancoding.com/sketch -->
    <title>Group</title>
    <desc>Created with Sketch.</desc>
    <defs></defs>
    <g id="Page-1" stroke="none" stroke-width="1" fill="none" fill-rule="evenodd">
        <g id="Group" transform="translate(-43.000000, 17.000000)">
            <g id="arrow" transform="translate(1900.000000, 1602.000000)">
                <g id="Group" transform="translate(-18.000000, 0.000000)">
                    <polyline id="Polygon" stroke="#86AB83" stroke-width="180" stroke-linecap="round" stroke-linejoin="round" points="858.5 0 1506.72001 1122.75 210.279985 1122.75"></polyline>
                    <path d="M21.7781512,1087.00961 L362.785832,912.404302 L362.785832,912.404302 C382.449464,902.335982 406.551974,910.114519 416.620294,929.778151 C419.509454,935.420739 421.016138,941.669212 421.016138,948.008458 L421.016138,1103.01039 L421.016138,1297.21907 L421.016138,1297.21907 C421.016138,1319.31046 403.107528,1337.21907 381.016138,1337.21907 C374.676892,1337.21907 368.428419,1335.71239 362.785832,1332.82323 L21.7781512,1158.21792 L21.7781512,1158.21792 C2.11451884,1148.1496 -5.66401844,1124.04709 4.4043019,1104.38346 C8.22944658,1096.91287 14.3075666,1090.83475 21.7781512,1087.00961 Z" id="Triangle" fill="#86AB83"></path>
                </g>
            </g>
            <g id="arrow" transform="translate(1783.176131, 962.255913) rotate(240.000000) translate(-1783.176131, -962.255913) translate(1038.676131, 327.255913)">
                <g id="Group" transform="translate(-18.000000, 0.000000)">
                    <polyline id="Polygon" stroke="#86AB83" stroke-width="180" stroke-linecap="round" stroke-linejoin="round" points="858.5 0 1506.72001 1122.75 210.279985 1122.75"></polyline>
                    <path d="M21.7781512,1087.00961 L362.785832,912.404302 L362.785832,912.404302 C382.449464,902.335982 406.551974,910.114519 416.620294,929.778151 C419.509454,935.420739 421.016138,941.669212 421.016138,948.008458 L421.016138,1103.01039 L421.016138,1297.21907 L421.016138,1297.21907 C421.016138,1319.31046 403.107528,1337.21907 381.016138,1337.21907 C374.676892,1337.21907 368.428419,1335.71239 362.785832,1332.82323 L21.7781512,1158.21792 L21.7781512,1158.21792 C2.11451884,1148.1496 -5.66401844,1124.04709 4.4043019,1104.38346 C8.22944658,1096.91287 14.3075666,1090.83475 21.7781512,1087.00961 Z" id="Triangle" fill="#86AB83"></path>
                </g>
            </g>
            <text id="compost" font-family="Roboto-Light, Roboto" font-size="958" font-weight="300" fill="#AB9683">
                <tspan x="0" y="3761">compost</tspan>
            </text>
            <g id="arrow" transform="translate(1077.176131, 2331.255913) rotate(120.000000) translate(-1077.176131, -2331.255913) translate(332.676131, 1696.255913)">
                <g id="Group" transform="translate(-18.000000, 0.000000)">
                    <polyline id="Polygon" stroke="#86AB83" stroke-width="180" stroke-linecap="round" stroke-linejoin="round" points="858.5 0 1506.72001 1122.75 210.279985 1122.75"></polyline>
                    <path d="M21.7781512,1087.00961 L362.785832,912.404302 L362.785832,912.404302 C382.449464,902.335982 406.551974,910.114519 416.620294,929.778151 C419.509454,935.420739 421.016138,941.669212 421.016138,948.008458 L421.016138,1103.01039 L421.016138,1297.21907 L421.016138,1297.21907 C421.016138,1319.31046 403.107528,1337.21907 381.016138,1337.21907 C374.676892,1337.21907 368.428419,1335.71239 362.785832,1332.82323 L21.7781512,1158.21792 L21.7781512,1158.21792 C2.11451884,1148.1496 -5.66401844,1124.04709 4.4043019,1104.38346 C8.22944658,1096.91287 14.3075666,1090.83475 21.7781512,1087.00961 Z" id="Triangle" fill="#86AB83"></path>
                </g>
            </g>
        </g>
    </g>
</svg>